<svg width="1500" height="2000" viewBox="0 0 1500 2000" fill="none" xmlns="http://www.w3.org/2000/svg">
<path fill-rule="evenodd" clip-rule="evenodd" d="M750 477L461 766L750 1055L894.501 910.5H894.562V910.439L1039 766L894.562 621.561V621.5H894.501L750 477ZM894.501 621.5H605.562V910.5H894.501L894.562 910.439V621.561L894.501 621.5Z" fill="white"/>
<path d="M309 1379.7C309 1465.24 361.381 1522 442.553 1522C504.931 1522 548.915 1486.03 559.311 1428.07H524.524C514.127 1467.24 484.138 1490.02 440.953 1490.02C382.174 1490.02 344.587 1444.05 344.587 1379.7C344.587 1314.95 382.174 1269.38 440.953 1269.38C483.338 1269.38 514.527 1292.16 524.923 1331.33H559.711C549.315 1273.37 504.531 1237.4 442.553 1237.4C361.381 1237.4 309 1294.96 309 1379.7Z" fill="white"/>
<path d="M729.235 1315.74V1417.67C729.235 1463.64 706.843 1492.02 669.657 1492.02C635.669 1492.02 616.475 1469.64 616.475 1427.27V1315.74H583.687V1429.27C583.687 1496.82 619.274 1522 664.059 1522C697.647 1522 717.24 1507.61 729.235 1492.42L733.634 1519.6H762.024V1315.74H729.235Z" fill="white"/>
<path d="M897.488 1313.35C863.101 1313.35 841.108 1329.73 827.513 1348.52V1239.8H794.725V1519.6H823.115L827.513 1488.42C839.909 1508.01 863.101 1522 897.488 1522C953.868 1522 995.454 1480.03 995.454 1417.67C995.454 1351.32 953.868 1313.35 897.488 1313.35ZM894.29 1492.82C854.304 1492.82 827.113 1461.64 827.113 1416.87C827.113 1373.3 854.304 1342.53 894.29 1342.53C934.675 1342.53 961.866 1373.3 961.866 1417.67C961.866 1462.04 934.675 1492.82 894.29 1492.82Z" fill="white"/>
<path d="M1037.32 1237C1025.32 1237 1016.13 1245.79 1016.13 1258.19C1016.13 1270.58 1025.32 1279.37 1037.32 1279.37C1049.32 1279.37 1058.51 1270.58 1058.51 1258.19C1058.51 1245.79 1049.32 1237 1037.32 1237ZM1020.93 1315.74V1519.6H1053.71V1315.74H1020.93Z" fill="white"/>
<path d="M1100.23 1466.44C1100.23 1502.41 1114.23 1519.6 1153.41 1519.6H1191V1489.62H1155.41C1139.02 1489.62 1133.02 1483.23 1133.02 1466.04V1345.72H1184.6V1315.74H1133.02V1258.58H1100.23V1315.74H1046.46V1345.72H1100.23V1466.44Z" fill="white"/>
</svg>
