<svg width="2000" height="1000" viewBox="0 0 2000 1000" fill="none" xmlns="http://www.w3.org/2000/svg">
<path fill-rule="evenodd" clip-rule="evenodd" d="M497 211L208 500L497 789.001L641.501 644.5H641.562V644.439L786.001 500L641.562 355.561V355.5H641.501L497 211ZM641.501 355.5H352.562V644.5H641.501L641.562 644.439V355.561L641.501 355.5Z" fill="white"/>
<path d="M909 499.7C909 585.24 961.381 642 1042.55 642C1104.93 642 1148.91 606.025 1159.31 548.066H1124.52C1114.13 587.238 1084.14 610.022 1040.95 610.022C982.174 610.022 944.587 564.055 944.587 499.7C944.587 434.945 982.174 389.377 1040.95 389.377C1083.34 389.377 1114.53 412.161 1124.92 451.334H1159.71C1149.31 393.374 1104.53 357.4 1042.55 357.4C961.381 357.4 909 414.959 909 499.7Z" fill="white"/>
<path d="M1329.24 435.745V537.673C1329.24 583.641 1306.84 612.021 1269.66 612.021C1235.67 612.021 1216.48 589.637 1216.48 547.266V435.745H1183.69V549.265C1183.69 616.818 1219.27 642 1264.06 642C1297.65 642 1317.24 627.61 1329.24 612.421L1333.63 639.602H1362.02V435.745H1329.24Z" fill="white"/>
<path d="M1497.49 433.346C1463.1 433.346 1441.11 449.735 1427.51 468.522V359.798H1394.72V639.602H1423.11L1427.51 608.424C1439.91 628.01 1463.1 642 1497.49 642C1553.87 642 1595.45 600.029 1595.45 537.673C1595.45 471.32 1553.87 433.346 1497.49 433.346ZM1494.29 612.82C1454.3 612.82 1427.11 581.642 1427.11 536.874C1427.11 493.304 1454.3 462.526 1494.29 462.526C1534.68 462.526 1561.87 493.304 1561.87 537.673C1561.87 582.042 1534.68 612.82 1494.29 612.82Z" fill="white"/>
<path d="M1637.32 357C1625.32 357 1616.13 365.794 1616.13 378.185C1616.13 390.576 1625.32 399.37 1637.32 399.37C1649.32 399.37 1658.51 390.576 1658.51 378.185C1658.51 365.794 1649.32 357 1637.32 357ZM1620.93 435.745V639.602H1653.71V435.745H1620.93Z" fill="white"/>
<path d="M1700.23 586.439C1700.23 622.414 1714.23 639.602 1753.41 639.602H1791V609.623H1755.41C1739.02 609.623 1733.02 603.227 1733.02 586.039V465.724H1784.6V435.745H1733.02V378.585H1700.23V435.745H1646.46V465.724H1700.23V586.439Z" fill="white"/>
</svg>
